<mxfile host="app.diagrams.net" modified="2023-10-11T23:59:15.931Z" agent="Mozilla/5.0 (Windows NT 10.0; Win64; x64) AppleWebKit/537.36 (KHTML, like Gecko) Chrome/116.0.0.0 Safari/537.36 OPR/102.0.0.0" version="22.0.4" etag="eCO07aHUjg7PtLR9Qgww" type="github">
  <diagram name="PÃ¡gina-1" id="8L0XJYz9awI8W2-ACyHK">
    <mxGraphModel>
      <root>
        <mxCell id="0" />
        <mxCell id="1" parent="0" />
      </root>
    </mxGraphModel>
  </diagram>
</mxfile>
